<?xml version="1.0" encoding="UTF-8"?>
<svg id="Capa_1" xmlns="http://www.w3.org/2000/svg" version="1.1" viewBox="0 0 829 338">
  <!-- Generator: Adobe Illustrator 30.3.0, SVG Export Plug-In . SVG Version: 2.1.3 Build 182)  -->
  <defs>
    <style>
      .st0 {
        fill: #fff;
      }
    </style>
  </defs>
  <g>
    <path class="st0" d="M333.66,210.87v-64.91h-25.52v-12.1h65.35v12.1h-25.52v64.91h-14.3Z"/>
    <path class="st0" d="M410.01,211.64c-6.53,0-12.23-1.3-17.11-3.91-4.88-2.6-8.66-6.18-11.33-10.73-2.68-4.55-4.02-9.72-4.02-15.51s1.3-11.06,3.91-15.57c2.6-4.51,6.2-8.05,10.78-10.62,4.58-2.57,9.81-3.85,15.68-3.85s10.82,1.25,15.29,3.74c4.47,2.49,7.99,6.01,10.56,10.56,2.57,4.55,3.85,9.9,3.85,16.06,0,.59-.02,1.25-.06,1.98-.04.73-.09,1.43-.17,2.09h-48.96v-9.13h41.7l-5.39,2.86c.07-3.37-.62-6.34-2.09-8.91-1.47-2.57-3.47-4.58-6-6.05-2.53-1.47-5.45-2.2-8.75-2.2s-6.33.73-8.86,2.2c-2.53,1.47-4.51,3.5-5.94,6.11-1.43,2.6-2.15,5.67-2.15,9.19v2.2c0,3.52.81,6.64,2.42,9.35,1.61,2.71,3.89,4.8,6.82,6.27,2.93,1.47,6.31,2.2,10.12,2.2,3.3,0,6.27-.51,8.91-1.54,2.64-1.03,4.99-2.64,7.04-4.84l7.37,8.47c-2.64,3.08-5.96,5.45-9.96,7.1-4,1.65-8.56,2.48-13.7,2.48Z"/>
    <path class="st0" d="M456.33,210.87v-58.75h13.09v16.17l-1.54-4.73c1.76-3.96,4.53-6.97,8.31-9.02,3.78-2.05,8.49-3.08,14.14-3.08v13.09c-.59-.15-1.14-.24-1.65-.27-.51-.04-1.03-.06-1.54-.06-5.21,0-9.35,1.52-12.43,4.57-3.08,3.04-4.62,7.57-4.62,13.59v28.5h-13.75Z"/>
    <path class="st0" d="M507.49,210.87v-58.75h13.09v16.17l-1.54-4.73c1.76-3.96,4.53-6.97,8.31-9.02,3.78-2.05,8.49-3.08,14.14-3.08v13.09c-.59-.15-1.14-.24-1.65-.27-.51-.04-1.03-.06-1.54-.06-5.21,0-9.35,1.52-12.43,4.57-3.08,3.04-4.62,7.57-4.62,13.59v28.5h-13.75Z"/>
    <path class="st0" d="M572.18,211.64c-4.4,0-8.25-.75-11.55-2.26s-5.85-3.59-7.65-6.27c-1.8-2.68-2.7-5.7-2.7-9.08s.79-6.27,2.37-8.91c1.58-2.64,4.16-4.73,7.76-6.27,3.59-1.54,8.36-2.31,14.3-2.31h17.05v9.13h-16.06c-4.7,0-7.85.75-9.46,2.26-1.61,1.5-2.42,3.36-2.42,5.56,0,2.49.99,4.48,2.97,5.94,1.98,1.47,4.73,2.2,8.25,2.2s6.4-.77,9.08-2.31c2.68-1.54,4.6-3.81,5.78-6.82l2.31,8.25c-1.32,3.45-3.69,6.12-7.1,8.03-3.41,1.91-7.72,2.86-12.93,2.86ZM590.66,210.87v-11.88l-.77-2.53v-20.79c0-4.03-1.21-7.17-3.63-9.41-2.42-2.24-6.09-3.36-11-3.36-3.3,0-6.55.51-9.74,1.54-3.19,1.03-5.89,2.46-8.09,4.29l-5.39-10.01c3.15-2.42,6.91-4.24,11.28-5.45,4.36-1.21,8.89-1.82,13.59-1.82,8.51,0,15.09,2.04,19.75,6.11,4.66,4.07,6.99,10.36,6.99,18.87v34.44h-12.98Z"/>
    <path class="st0" d="M652.71,210.87l-34.33-77.01h6.16l32.79,73.6h-3.41l32.9-73.6h5.83l-34.33,77.01h-5.61Z"/>
    <path class="st0" d="M694.3,144.09l15.29-12.98h7.92l-17.27,12.98h-5.94ZM697.82,210.87v-57.43h5.5v57.43h-5.5Z"/>
    <path class="st0" d="M738.75,211.31c-4.25,0-7.94-.68-11.06-2.04-3.12-1.36-5.5-3.28-7.15-5.78-1.65-2.49-2.48-5.35-2.48-8.58,0-2.93.68-5.59,2.04-7.98,1.36-2.38,3.61-4.33,6.77-5.83,3.15-1.5,7.37-2.26,12.65-2.26h21.12v4.29h-21.01c-5.94,0-10.1,1.1-12.49,3.3-2.38,2.2-3.58,4.95-3.58,8.25,0,3.67,1.39,6.6,4.18,8.8,2.79,2.2,6.71,3.3,11.77,3.3s8.93-1.1,12.27-3.3c3.34-2.2,5.81-5.39,7.43-9.57l1.54,3.74c-1.54,4.18-4.16,7.5-7.87,9.96-3.71,2.46-8.42,3.69-14.14,3.69ZM759.43,210.87v-13.09l-.22-1.98v-21.56c0-5.35-1.45-9.42-4.35-12.21-2.9-2.79-7.13-4.18-12.71-4.18-3.96,0-7.65.68-11.06,2.04-3.41,1.36-6.33,3.1-8.75,5.23l-2.75-3.96c2.86-2.57,6.31-4.57,10.34-6,4.03-1.43,8.25-2.15,12.65-2.15,7.11,0,12.58,1.8,16.39,5.39,3.81,3.59,5.72,8.95,5.72,16.06v36.42h-5.28Z"/>
  </g>
  <g>
    <path class="st0" d="M92.64,122.49v87.06h185.79v-87.06H92.64ZM168.44,128.36l-2.46,2.09c-9.95,8.45-20.21,12.72-30.52,12.72-.53,0-1.06-.01-1.58-.03-12.47-.52-22.74-7.19-29.16-12.69l-2.43-2.08h66.15ZM193.33,203.68l2.46-2.09c10.46-8.87,21.26-13.14,32.1-12.69,12.48.52,22.75,7.19,29.16,12.69l2.43,2.08h-66.15ZM272.56,203.68h-5l-.35-.4c-4-4.53-18.64-19.36-39-20.24-14.79-.65-29.19,6.2-42.79,20.28l-.35.36h-86.56v-29.59l1.83,1.18c7.7,4.98,20.08,10.91,35.31,10.91,16.4,0,32.28-6.93,47.21-20.59,18.1-16.56,38.75-21.65,61.39-15.13,13.67,3.94,24.02,11.11,27.84,14.01l.47.36v38.85ZM272.56,157.59l-1.83-1.18c-15.25-9.85-54.74-29.09-91.83,4.85-13.94,12.76-28.55,19.19-43.54,19.19-2.79,0-5.6-.22-8.41-.67-14.15-2.25-24.3-9.6-28.01-12.66l-.43-.36v-33.88l1.96,1.72c7.13,6.23,18.66,13.79,33.08,14.41,14.77.62,29.18-6.19,42.79-20.28l.35-.36h95.86v29.23Z"/>
    <rect class="st0" x="92.65" y="233.4" width="185.79" height="5.87"/>
  </g>
</svg>